<svg width="132" height="163" viewBox="0 0 132 163" fill="none" xmlns="http://www.w3.org/2000/svg">
<rect x="-2.28027" y="1.67343" width="28.5986" height="61.3285" rx="4" transform="matrix(-0.988425 -0.15171 -0.15171 0.988425 83.1781 51.4001)" fill="#3A3A3A" stroke="black" stroke-width="4"/>
<path d="M65.847 42.2862L109.431 48.9758C112.85 49.5005 115.225 45.7617 113.441 42.9173L113.255 42.6448L94.7852 17.654C93.5192 15.9411 91.1436 15.5282 89.3809 16.6813L89.2127 16.7987L64.0977 35.0998C61.2125 37.2023 62.3183 41.7446 65.847 42.2862Z" fill="#159462" stroke="black" stroke-width="4"/>
<path d="M96.4738 31.4116L90.5062 70.2912C89.9835 73.6973 93.6967 76.0735 96.5429 74.3142L96.8161 74.1308L119.371 57.6944C121.108 56.4279 121.526 54.0255 120.351 52.2537L120.232 52.0843L103.645 29.6411C101.531 26.7804 97.0134 27.8956 96.4738 31.4116Z" fill="#0CCE6B" stroke="black" stroke-width="4"/>
<path d="M37.5058 146.346C38.7717 148.059 41.1465 148.471 42.9092 147.318L43.0782 147.202L68.1932 128.901C71.0784 126.798 69.9726 122.256 66.4439 121.714L22.8596 115.025C19.441 114.5 17.0659 118.239 18.8501 121.083L19.0355 121.356L37.5058 146.346Z" fill="#8D0E2E" stroke="black" stroke-width="4"/>
<path d="M12.9204 106.305C11.1827 107.571 10.7654 109.974 11.9401 111.745L12.0593 111.915L28.6461 134.359C30.7603 137.22 35.2774 136.104 35.8171 132.589L41.7846 93.7089C42.3074 90.3028 38.5941 87.9267 35.7479 89.6859L35.4747 89.8692L12.9204 106.305Z" fill="#C20114" stroke="black" stroke-width="4"/>
</svg>
