<svg width="398" height="180" viewBox="0 0 398 180" fill="none" xmlns="http://www.w3.org/2000/svg">
<rect width="398" height="180" fill="white"/>
<path d="M123.737 135.63C119.065 135.63 115.449 134.99 112.889 133.71C110.393 132.366 108.057 130.254 105.881 127.374L112.409 121.806C114.201 123.918 115.897 125.39 117.497 126.222C119.097 127.054 121.177 127.47 123.737 127.47C126.873 127.47 129.177 127.022 130.649 126.126C132.121 125.23 132.857 123.854 132.857 121.998C132.857 120.846 132.505 119.918 131.801 119.214C131.161 118.446 129.945 117.774 128.153 117.198C126.425 116.622 123.897 116.046 120.569 115.47C111.609 113.806 107.129 109.134 107.129 101.454C107.129 97.3582 108.697 94.1262 111.833 91.7582C115.033 89.3902 119.289 88.2062 124.601 88.2062C132.601 88.2062 138.169 90.7342 141.305 95.7902L134.873 101.262C133.273 99.5342 131.705 98.2862 130.169 97.5182C128.633 96.7502 126.777 96.3662 124.601 96.3662C122.169 96.3662 120.281 96.8462 118.937 97.8062C117.657 98.7662 117.017 100.078 117.017 101.742C117.017 103.342 117.753 104.59 119.225 105.486C120.697 106.318 122.713 106.99 125.273 107.502C129.305 108.398 132.537 109.358 134.969 110.382C137.401 111.342 139.321 112.782 140.729 114.702C142.137 116.558 142.841 119.054 142.841 122.19C142.841 131.15 136.473 135.63 123.737 135.63ZM157.079 97.5182V118.83C157.079 121.582 157.559 123.566 158.519 124.782C159.479 125.998 161.047 126.606 163.223 126.606H170.135V134.67H163.223C157.207 134.67 152.919 133.486 150.359 131.118C147.863 128.686 146.615 124.59 146.615 118.83V81.1982C146.615 79.6622 146.327 78.4142 145.751 77.4542C145.175 76.4942 144.119 75.4062 142.583 74.1902L149.591 68.0462C152.407 69.5182 154.359 71.2142 155.447 73.1342C156.535 74.9902 157.079 77.6142 157.079 81.0062V89.3582H170.135V97.5182H157.079ZM191.997 135.63C185.597 135.63 180.637 134.094 177.117 131.022C173.597 127.95 171.837 123.598 171.837 117.966V105.87C171.837 100.238 173.597 95.8862 177.117 92.8142C180.637 89.7422 185.597 88.2062 191.997 88.2062C198.461 88.2062 203.453 89.7422 206.973 92.8142C210.493 95.8862 212.253 100.238 212.253 105.87V117.966C212.253 123.598 210.493 127.95 206.973 131.022C203.453 134.094 198.461 135.63 191.997 135.63ZM191.997 127.47C195.133 127.47 197.533 126.67 199.197 125.07C200.925 123.406 201.789 121.038 201.789 117.966V105.87C201.789 102.798 200.925 100.462 199.197 98.8622C197.533 97.1982 195.133 96.3662 191.997 96.3662C188.925 96.3662 186.525 97.1982 184.797 98.8622C183.133 100.462 182.301 102.798 182.301 105.87V117.966C182.301 121.038 183.133 123.406 184.797 125.07C186.525 126.67 188.925 127.47 191.997 127.47ZM236.492 135.63C229.964 135.63 224.94 134.126 221.42 131.118C217.9 128.11 216.14 123.79 216.14 118.158V105.678C216.14 100.11 217.9 95.8222 221.42 92.8142C225.004 89.7422 230.028 88.2062 236.492 88.2062C244.492 88.2062 250.348 90.7342 254.06 95.7902L246.86 101.646C245.26 99.7262 243.692 98.3822 242.156 97.6142C240.684 96.7822 238.796 96.3662 236.492 96.3662C233.356 96.3662 230.924 97.1982 229.196 98.8622C227.468 100.462 226.604 102.734 226.604 105.678V118.158C226.604 121.166 227.436 123.47 229.1 125.07C230.828 126.67 233.292 127.47 236.492 127.47C238.86 127.47 240.812 127.086 242.348 126.318C243.948 125.486 245.484 124.142 246.956 122.286L254.156 128.142C252.3 130.638 249.964 132.526 247.148 133.806C244.332 135.022 240.78 135.63 236.492 135.63ZM298.874 134.478H288.122L283.898 119.022C283.322 116.91 282.426 115.374 281.21 114.414C280.058 113.454 278.17 112.846 275.546 112.59L268.154 120.078V134.478H257.69V76.3982C257.69 74.8622 257.402 73.6142 256.826 72.6542C256.25 71.6942 255.194 70.6062 253.658 69.3902L260.666 63.3422C263.482 64.7502 265.434 66.4142 266.522 68.3342C267.61 70.1902 268.154 72.8142 268.154 76.2062V107.31L285.722 89.3582H298.49L283.034 105.006C286.106 105.646 288.506 107.054 290.234 109.23C291.962 111.406 293.434 114.67 294.65 119.022L298.874 134.478ZM309.858 135.63C307.042 134.158 305.058 132.462 303.906 130.542C302.818 128.622 302.274 125.998 302.274 122.67V76.3982C302.274 74.7982 301.986 73.5182 301.41 72.5582C300.834 71.5982 299.778 70.5422 298.242 69.3902L305.25 63.2462C308.066 64.7182 310.018 66.4142 311.106 68.3342C312.194 70.1902 312.738 72.8142 312.738 76.2062V122.478C312.738 124.014 313.026 125.262 313.602 126.222C314.242 127.182 315.33 128.27 316.866 129.486L309.858 135.63ZM361.859 89.3582V139.278C361.859 145.23 360.227 149.582 356.963 152.334C353.763 155.086 348.675 156.462 341.699 156.462H329.315V148.302H341.699C345.027 148.302 347.459 147.566 348.995 146.094C350.595 144.686 351.395 142.414 351.395 139.278V127.854C348.387 132.91 343.619 135.438 337.091 135.438C332.099 135.438 328.227 134.094 325.475 131.406C322.723 128.654 321.347 124.782 321.347 119.79V101.358C321.347 99.8222 321.059 98.5742 320.483 97.6142C319.907 96.6542 318.851 95.5982 317.315 94.4462L324.323 88.3022C327.139 89.7742 329.091 91.4382 330.179 93.2942C331.267 95.1502 331.811 97.7742 331.811 101.166V118.83C331.811 121.454 332.515 123.534 333.923 125.07C335.395 126.606 337.411 127.374 339.971 127.374C343.171 127.374 345.731 126.286 347.651 124.11C349.571 121.87 350.819 119.086 351.395 115.758V89.3582H361.859Z" fill="black"/>
<rect x="-2.28027" y="1.67343" width="28.5986" height="61.3285" rx="4" transform="matrix(-0.988425 -0.15171 -0.15171 0.988425 102.178 52.4001)" fill="#3A3A3A" stroke="black" stroke-width="4"/>
<path d="M113.132 28.5535L107.164 67.4332C106.624 70.9492 110.599 73.3677 113.474 71.2728L136.028 54.8363C137.822 53.529 138.209 51.0112 136.889 49.2262L120.303 26.7831C118.188 23.9224 113.671 25.0376 113.132 28.5535Z" fill="#159462" stroke="black" stroke-width="4"/>
<path d="M83.1008 46.3838L133.736 54.1556C137.388 54.7161 139.783 50.4497 137.402 47.6245L115.48 21.6099C114.19 20.0788 111.966 19.7375 110.276 20.8112L81.5623 39.0538C78.4439 41.035 79.4491 45.8233 83.1008 46.3838Z" fill="#0CCE6B" stroke="black" stroke-width="4"/>
<path d="M34.231 110.748C32.4371 112.056 32.0507 114.574 33.3699 116.359L49.9567 138.803C52.0709 141.663 56.588 140.548 57.1276 137.032L63.0951 98.1525C63.6348 94.6366 59.6601 92.218 56.7853 94.3129L34.231 110.748Z" fill="#8D0E2E" stroke="black" stroke-width="4"/>
<path d="M54.2459 143.272C55.5362 144.804 57.7612 145.146 59.4515 144.071L88.1521 125.827C91.2697 123.846 90.2647 119.059 86.6133 118.498L36.0039 110.731C32.3525 110.17 29.9581 114.435 32.3379 117.261L54.2459 143.272Z" fill="#C20114" stroke="black" stroke-width="4"/>
</svg>
