<svg
  xmlns="http://www.w3.org/2000/svg"
  viewBox="0 0 32 33"
  fill="none"
  width="100%"
  height="100%"
  role="img"
  aria-label="Abstract colorful shape icon">
  <title>Abstract colorful shape icon</title>

  <path d="M15.0662 11.1329L18.7681 11.7011C19.1651 11.762 19.4375 12.1332 19.3766 12.5302L17.9056 22.1141C17.8447 22.5111 17.4734 22.7836 17.0764 22.7226L13.3746 22.1544C12.9775 22.0935 12.7051 21.7223 12.766 21.3252L14.237 11.7414C14.298 11.3444 14.6692 11.0719 15.0662 11.1329Z"
    fill="#3A3A3A" stroke="black"/>

  <path d="M15.9722 9.79068L23.8965 11.007C24.5182 11.1024 24.95 10.4226 24.6256 9.90542L24.5918 9.85587L21.2337 5.31209C21.0035 5.00066 20.5716 4.92558 20.2511 5.13524L20.2205 5.15658L15.6541 8.48406C15.1295 8.86633 15.3306 9.6922 15.9722 9.79068Z"
    fill="#159462" stroke="black"/>

  <path d="M21.5407 7.81348L20.4557 14.8825C20.3606 15.5018 21.0358 15.9338 21.5533 15.614L21.6029 15.5806L25.7038 12.5922C26.0196 12.3619 26.0956 11.9251 25.882 11.603L25.8604 11.5722L22.8446 7.49157C22.4602 6.97145 21.6388 7.17421 21.5407 7.81348Z"
    fill="#0CCE6B" stroke="black"/>

  <path d="M10.8192 28.7106C11.0494 29.0221 11.4812 29.097 11.8017 28.8874L11.8324 28.8663L16.3988 25.5388C16.9233 25.1565 16.7223 24.3306 16.0807 24.2321L8.15629 23.0159C7.53473 22.9205 7.10289 23.6003 7.42729 24.1174L7.461 24.167L10.8192 28.7106Z"
    fill="#8D0E2E" stroke="black"/>

  <path d="M6.34916 21.4305C6.03322 21.6606 5.95735 22.0975 6.17093 22.4195L6.1926 22.4505L9.20838 26.5312C9.59278 27.0514 10.4141 26.8485 10.5122 26.2094L11.5972 19.1403C11.6923 18.521 11.0171 18.0889 10.4996 18.4088L10.4499 18.4421L6.34916 21.4305Z"
    fill="#C20114" stroke="black"/>
</svg>